<svg width="18" height="18" viewBox="0 0 18 18" fill="none" xmlns="http://www.w3.org/2000/svg">
<circle cx="9" cy="9" r="8.5" stroke="#03C00A"/>
<path d="M6.1445 8.78364C6.95798 8.78364 7.61744 8.11372 7.61744 7.28733C7.61744 6.46094 6.95798 5.79102 6.1445 5.79102C5.33102 5.79102 4.67157 6.46094 4.67157 7.28733C4.67157 8.11372 5.33102 8.78364 6.1445 8.78364Z" fill="#03C00A"/>
<path d="M8.4766 12.3998H3.81232V10.7788C3.81232 9.90593 4.42604 9.28247 5.28525 9.28247H7.00367C7.86288 9.28247 8.4766 9.90593 8.4766 10.7788V12.3998Z" fill="#03C00A"/>
<path d="M11.6676 8.78364C12.4811 8.78364 13.1406 8.11372 13.1406 7.28733C13.1406 6.46094 12.4811 5.79102 11.6676 5.79102C10.8542 5.79102 10.1947 6.46094 10.1947 7.28733C10.1947 8.11372 10.8542 8.78364 11.6676 8.78364Z" fill="#03C00A"/>
<path d="M13.9999 12.3998H9.33563V10.7788C9.33563 9.90593 9.94935 9.28247 10.8086 9.28247H12.527C13.3862 9.28247 13.9999 9.90593 13.9999 10.7788V12.3998Z" fill="#03C00A"/>
</svg>
