<svg width="18" height="18" viewBox="0 0 18 18" fill="none" xmlns="http://www.w3.org/2000/svg">
<path fill-rule="evenodd" clip-rule="evenodd" d="M18 9C18 13.9706 13.9706 18 9 18C4.02944 18 0 13.9706 0 9C0 4.02944 4.02944 0 9 0C13.9706 0 18 4.02944 18 9ZM6.14452 8.78355C6.95799 8.78355 7.61745 8.11363 7.61745 7.28724C7.61745 6.46085 6.95799 5.79093 6.14452 5.79093C5.33104 5.79093 4.67158 6.46085 4.67158 7.28724C4.67158 8.11363 5.33104 8.78355 6.14452 8.78355ZM3.81232 12.3997H8.4766V10.7787C8.4766 9.90583 7.86288 9.28236 7.00367 9.28236H5.28525C4.42604 9.28236 3.81232 9.90583 3.81232 10.7787V12.3997ZM11.6676 8.78355C12.4811 8.78355 13.1406 8.11363 13.1406 7.28724C13.1406 6.46085 12.4811 5.79093 11.6676 5.79093C10.8542 5.79093 10.1947 6.46085 10.1947 7.28724C10.1947 8.11363 10.8542 8.78355 11.6676 8.78355ZM9.33564 12.3997H13.9999V10.7787C13.9999 9.90583 13.3862 9.28236 12.527 9.28236H10.8086C9.94936 9.28236 9.33564 9.90583 9.33564 10.7787V12.3997Z" fill="#03C00A"/>
</svg>
