<svg width="18" height="18" viewBox="0 0 18 18" fill="none" xmlns="http://www.w3.org/2000/svg">
<circle cx="9" cy="9" r="8.5" stroke="#03C00A"/>
<path d="M9.00317 4C11.8585 4 14 6.28571 14 9C14 11.8571 11.7157 14 9.00317 14C6.14784 14 4.00635 11.7143 4.00635 9C3.86358 6.28571 6.14784 4 9.00317 4ZM10.1453 8.57143C10.0025 7.42857 9.57424 6.42857 9.00317 5.57143C8.28934 6.42857 7.86104 7.42857 7.86104 8.57143H10.1453ZM7.86104 9.71429C7.86104 10.2857 8.00381 10.8571 8.28934 11.2857C8.43211 11.8571 8.71764 12.2857 9.00317 12.7143C9.57424 11.7143 10.0025 10.7143 10.1453 9.71429H7.86104ZM12.8579 9.71429H11.1447C11.1447 10.8571 10.7164 11.8571 10.1453 12.8571C11.4302 12.5714 12.7151 11.2857 12.8579 9.71429ZM12.8579 8.57143C12.8579 7.85714 12.5723 7 11.8585 6.28571C11.2874 5.85714 10.7164 5.42857 10.1453 5.28571C10.7164 6.28571 11.1447 7.42857 11.2874 8.57143H12.8579ZM7.86104 5.28571C7.00444 5.57143 6.43338 6 5.86231 6.57143C5.43401 7.14286 5.14848 7.85714 5.00571 8.57143H6.71891C6.86168 7.42857 7.28998 6.28571 7.86104 5.28571ZM7.86104 12.8571C7.28998 11.8571 6.86168 10.8571 6.71891 9.71429H5.00571C5.29124 11.2857 6.57614 12.5714 7.86104 12.8571Z" fill="#03C00A"/>
</svg>
