<svg width="18" height="18" viewBox="0 0 18 18" fill="none" xmlns="http://www.w3.org/2000/svg">
<path fill-rule="evenodd" clip-rule="evenodd" d="M9 18C13.9706 18 18 13.9706 18 9C18 4.02944 13.9706 0 9 0C4.02944 0 0 4.02944 0 9C0 13.9706 4.02944 18 9 18ZM13.7683 6.64018C14.1218 6.21591 14.0645 5.58534 13.6402 5.23178C13.2159 4.87821 12.5854 4.93554 12.2318 5.35982L7.93283 10.5186L5.70714 8.29289C5.31661 7.90237 4.68345 7.90237 4.29292 8.29289C3.9024 8.68342 3.9024 9.31658 4.29292 9.70711L7.29292 12.7071C7.49159 12.9058 7.76467 13.0117 8.04535 12.999C8.32602 12.9862 8.58839 12.856 8.76825 12.6402L13.7683 6.64018Z" fill="#03C00A"/>
</svg>
