<svg width="18" height="18" viewBox="0 0 18 18" fill="none" xmlns="http://www.w3.org/2000/svg">
<path fill-rule="evenodd" clip-rule="evenodd" d="M18 9C18 13.9706 13.9706 18 9 18C4.02944 18 0 13.9706 0 9C0 4.02944 4.02944 0 9 0C13.9706 0 18 4.02944 18 9ZM8.00086 4.54272H5.06514C5.06514 4.54272 4.9375 4.54272 4.9375 4.67239V5.96905C4.9375 5.96905 4.9375 6.09872 5.06514 6.09872H7.61794C8.25614 6.09872 8.7667 6.61738 8.7667 7.26571V11.314L6.08637 8.69202H5.83109L5.06525 9.59968V9.85901L9.40501 14.2677H9.66029L14 9.85901C14 9.72935 14 9.72935 13.8724 9.59968L12.9789 8.69202H12.7236L10.2984 11.2543V6.74705C10.2984 5.45039 9.27726 4.54272 8.00086 4.54272Z" fill="#03C00A"/>
</svg>
