<svg width="18" height="18" viewBox="0 0 18 18" fill="none" xmlns="http://www.w3.org/2000/svg">
<path fill-rule="evenodd" clip-rule="evenodd" d="M18 9C18 13.9706 13.9706 18 9 18C4.02944 18 0 13.9706 0 9C0 4.02944 4.02944 0 9 0C13.9706 0 18 4.02944 18 9ZM8.16899 13.5432H5.12676C5.12676 13.5432 5 13.5432 5 13.4144V12.1267C5 12.1267 5 11.9979 5.12676 11.9979H7.66195C8.29575 11.9979 8.80279 11.4828 8.80279 10.839V6.84716L6.26775 9.42244H6.01423L5.12692 8.52104V8.26349L9.43675 3.88525H9.69027L14.0001 8.26349V8.52104L13.1128 9.42244H12.8593L10.3239 6.84685V11.3541C10.3239 12.513 9.30983 13.5432 8.16899 13.5432Z" fill="#03C00A"/>
</svg>
