<svg width="18" height="18" viewBox="0 0 18 18" fill="none" xmlns="http://www.w3.org/2000/svg">
<path fill-rule="evenodd" clip-rule="evenodd" d="M9 18C13.9706 18 18 13.9706 18 9C18 4.02944 13.9706 0 9 0C4.02944 0 0 4.02944 0 9C0 13.9706 4.02944 18 9 18ZM8.25362 6.83024C8.25362 7.43295 8.0163 8.03566 7.77899 8.39729C7.54167 8.87947 7.06703 9.00001 6.59239 9.12055C5.99909 9.12055 5.52446 8.87946 5.28714 8.51784C4.93116 8.03566 4.8125 7.55349 4.8125 6.95078C4.8125 6.34806 4.8125 5.74535 5.16848 5.38372C5.52446 5.02209 5.88043 4.78101 6.47373 4.78101C7.06703 4.78101 7.54167 4.90155 7.77899 5.26318C8.13496 5.74535 8.25362 6.22752 8.25362 6.83024ZM5.99909 6.83024C5.99909 7.31241 5.99909 7.67404 6.11775 7.79458C6.23641 8.03566 6.35507 8.03566 6.47373 8.03566C6.71105 8.03566 6.82971 8.03566 6.82971 7.67404C6.94837 7.55349 6.94837 7.19186 6.94837 6.83024C6.94837 6.34806 6.94837 5.98643 6.82971 5.86589C6.82971 5.74535 6.71105 5.62481 6.47373 5.62481C6.35507 5.62481 6.23641 5.74535 6.11775 5.86589C5.99909 6.10698 5.99909 6.34806 5.99909 6.83024ZM11.2201 8.87946C11.8134 8.87946 12.1694 9.12055 12.5254 9.48218C12.7627 9.96435 13 10.4465 13 11.0492C13 11.4707 12.884 11.8332 12.7736 12.178C12.7261 12.3263 12.6797 12.4713 12.644 12.6163C12.288 12.9779 11.9321 13.219 11.3388 13.219C10.7455 13.219 10.2708 12.9779 10.0335 12.6163C9.67754 12.1341 9.55888 11.652 9.55888 11.0492C9.55888 10.4465 9.67754 9.96435 9.91485 9.48218C10.2708 9.12055 10.6268 8.87946 11.2201 8.87946ZM11.2201 12.2547C11.4574 12.2547 11.5761 12.1341 11.6947 12.0136C11.6947 11.9137 11.7151 11.8139 11.739 11.6969C11.7727 11.5314 11.8134 11.3317 11.8134 11.0492C11.8134 10.5671 11.6947 10.326 11.5761 10.0849C11.5761 9.96435 11.4574 9.84381 11.2201 9.84381C11.1014 9.84381 10.9828 9.96435 10.8641 10.0849C10.7455 10.2054 10.7455 10.5671 10.7455 11.0492C10.7455 11.5314 10.7455 11.7725 10.8641 12.0136C10.9828 12.1341 11.1014 12.2547 11.2201 12.2547ZM5.88043 13.0985L10.3895 4.78101H11.9321L7.30435 13.0985H5.88043Z" fill="#03C00A"/>
</svg>
