<svg width="18" height="18" viewBox="0 0 18 18" fill="none" xmlns="http://www.w3.org/2000/svg">
<circle cx="9" cy="9" r="8.5" stroke="#03C00A"/>
<path d="M7.77899 8.39729C8.0163 8.03566 8.25362 7.43295 8.25362 6.83024C8.25362 6.22752 8.13496 5.74535 7.77899 5.26318C7.54167 4.90155 7.06703 4.78101 6.47373 4.78101C5.88043 4.78101 5.52446 5.02209 5.16848 5.38372C4.8125 5.74535 4.8125 6.34806 4.8125 6.95078C4.8125 7.55349 4.93116 8.03566 5.28714 8.51784C5.52446 8.87946 5.99909 9.12055 6.59239 9.12055C7.06703 9.00001 7.54167 8.87946 7.77899 8.39729ZM6.11775 7.79458C5.99909 7.67404 5.99909 7.31241 5.99909 6.83024C5.99909 6.34806 5.99909 6.10698 6.11775 5.86589C6.23641 5.74535 6.35507 5.62481 6.47373 5.62481C6.71105 5.62481 6.82971 5.74535 6.82971 5.86589C6.94837 5.98643 6.94837 6.34806 6.94837 6.83024C6.94837 7.19186 6.94837 7.55349 6.82971 7.67404C6.82971 8.03566 6.71105 8.03566 6.47373 8.03566C6.35507 8.03566 6.23641 8.03566 6.11775 7.79458ZM12.5254 9.48218C12.1694 9.12055 11.8134 8.87946 11.2201 8.87946C10.6268 8.87946 10.2708 9.12055 9.91485 9.48218C9.67754 9.96435 9.55888 10.4465 9.55888 11.0492C9.55888 11.652 9.67754 12.1341 10.0335 12.6163C10.2708 12.9779 10.7455 13.219 11.3388 13.219C11.9321 13.219 12.288 12.9779 12.644 12.6163C12.7627 12.1341 13 11.652 13 11.0492C13 10.4465 12.7627 9.96435 12.5254 9.48218ZM11.6947 12.0136C11.5761 12.1341 11.4574 12.2547 11.2201 12.2547C11.1014 12.2547 10.9828 12.1341 10.8641 12.0136C10.7455 11.7725 10.7455 11.5314 10.7455 11.0492C10.7455 10.5671 10.7455 10.2054 10.8641 10.0849C10.9828 9.96435 11.1014 9.84381 11.2201 9.84381C11.4574 9.84381 11.5761 9.96435 11.5761 10.0849C11.6947 10.326 11.8134 10.5671 11.8134 11.0492C11.8134 11.5314 11.6947 11.7725 11.6947 12.0136ZM10.3895 4.78101L5.88043 13.0985H7.30435L11.9321 4.78101H10.3895Z" fill="#03C00A"/>
</svg>
