<svg width="14" height="12" viewBox="0 0 14 12" fill="none" xmlns="http://www.w3.org/2000/svg">
<path d="M5.87166 2.81324C6.29971 1.74612 6.51373 1.21256 6.86145 1.13861C6.95288 1.11916 7.04738 1.11916 7.13881 1.13861C7.48653 1.21256 7.70055 1.74612 8.1286 2.81324C8.37203 3.4201 8.49374 3.72352 8.72148 3.9299C8.78536 3.98779 8.8547 4.03934 8.92853 4.08384C9.19176 4.24249 9.52035 4.27192 10.1775 4.33078C11.29 4.43041 11.8463 4.48023 12.0162 4.79739C12.0514 4.86308 12.0753 4.9342 12.0869 5.00779C12.1432 5.36315 11.7343 5.73519 10.9165 6.47927L10.6893 6.68589C10.307 7.03376 10.1158 7.2077 10.0052 7.42477C9.93888 7.55498 9.89441 7.69521 9.87357 7.83985C9.83882 8.08098 9.89481 8.3333 10.0068 8.83796L10.0468 9.01827C10.2476 9.92329 10.348 10.3758 10.2226 10.5982C10.1101 10.798 9.90271 10.9259 9.67364 10.9369C9.41863 10.949 9.0593 10.6562 8.34065 10.0707C7.86718 9.68484 7.63044 9.49193 7.36764 9.41658C7.12747 9.34771 6.87279 9.34771 6.63262 9.41658C6.36982 9.49193 6.13308 9.68484 5.65961 10.0707C4.94096 10.6562 4.58163 10.949 4.32662 10.9369C4.09755 10.9259 3.89019 10.798 3.77761 10.5982C3.65228 10.3758 3.75268 9.92329 3.95348 9.01827L3.99348 8.83796C4.10545 8.3333 4.16144 8.08098 4.1267 7.83985C4.10585 7.69521 4.06138 7.55498 3.99504 7.42477C3.88446 7.2077 3.69328 7.03376 3.31092 6.68589L3.0838 6.47927C2.26594 5.73519 1.85701 5.36314 1.91333 5.00779C1.92499 4.9342 1.94891 4.86308 1.98409 4.79739C2.15396 4.48023 2.71021 4.43041 3.82272 4.33078C4.47991 4.27192 4.8085 4.24249 5.07173 4.08384C5.14556 4.03934 5.2149 3.98779 5.27878 3.9299C5.50652 3.72352 5.62824 3.4201 5.87166 2.81324Z" fill="#FDC603" stroke="#FDC603" stroke-width="2"/>
</svg>
