<svg width="18" height="18" viewBox="0 0 18 18" fill="none" xmlns="http://www.w3.org/2000/svg">
<path fill-rule="evenodd" clip-rule="evenodd" d="M9 18C13.9706 18 18 13.9706 18 9C18 4.02944 13.9706 0 9 0C4.02944 0 0 4.02944 0 9C0 13.9706 4.02944 18 9 18ZM8.6988 9.75C9.42169 10.625 10.1446 11 10.988 11C12.3133 11 13.5181 9.875 13.8795 8.375C14 7.875 14 7.375 14 6.75H13.8795H13.1566H13.0361L12.1928 6.875C12.2782 7.2295 12.2425 7.52117 12.2145 7.75C12.203 7.84392 12.1928 7.92725 12.1928 8C12.0723 8.75 11.5904 9.25 10.988 9.25C10.747 9.25 10.506 9.125 10.1446 8.625C10.0241 8.5 9.78313 8.125 9.66265 7.75C9.54217 7.5 9.42169 7.375 9.42169 7.375C8.81928 6.5 7.9759 6 7.01205 6C5.68675 6 4.48193 7.25 4.12048 8.75C4 9.25 4 10.125 4 10.375H5.80723C5.80723 10.1686 5.84374 9.88635 5.87657 9.63265C5.90337 9.42551 5.92771 9.23737 5.92771 9.125C6.04819 8.375 6.53012 7.875 7.13253 7.875C7.49398 7.875 7.94376 8.375 8 8.5C8.05624 8.625 8.5 9.5 8.6988 9.75Z" fill="#03C00A"/>
</svg>
