<svg width="18" height="18" viewBox="0 0 18 18" fill="none" xmlns="http://www.w3.org/2000/svg">
<path fill-rule="evenodd" clip-rule="evenodd" d="M9 18C13.9706 18 18 13.9706 18 9C18 4.02944 13.9706 0 9 0C4.02944 0 0 4.02944 0 9C0 13.9706 4.02944 18 9 18ZM14 9C14 6.28571 11.8585 4 9.00317 4C6.14784 4 3.86358 6.28571 4.00635 9C4.00635 11.7143 6.14784 14 9.00317 14C11.7157 14 14 11.8571 14 9ZM9.00317 5.57143C9.57424 6.42857 10.0025 7.42857 10.1453 8.57143H7.86104C7.86104 7.42857 8.28934 6.42857 9.00317 5.57143ZM8.28934 11.2857C8.00381 10.8571 7.86104 10.2857 7.86104 9.71428H10.1453C10.0025 10.7143 9.57424 11.7143 9.00317 12.7143C8.71764 12.2857 8.43211 11.8571 8.28934 11.2857ZM11.1447 9.71428H12.8579C12.7151 11.2857 11.4302 12.5714 10.1453 12.8571C10.7164 11.8571 11.1447 10.8571 11.1447 9.71428ZM11.8585 6.28571C12.5723 7 12.8579 7.85714 12.8579 8.57143H11.2874C11.1447 7.42857 10.7164 6.28571 10.1453 5.28571C10.7164 5.42857 11.2874 5.85714 11.8585 6.28571ZM5.86231 6.57143C6.43338 6 7.00444 5.57143 7.86104 5.28571C7.28998 6.28571 6.86168 7.42857 6.71891 8.57143H5.00571C5.14848 7.85714 5.43401 7.14286 5.86231 6.57143ZM6.71891 9.71428C6.86168 10.8571 7.28998 11.8571 7.86104 12.8571C6.57614 12.5714 5.29124 11.2857 5.00571 9.71428H6.71891Z" fill="#03C00A"/>
</svg>
