<svg width="18" height="18" viewBox="0 0 18 18" fill="none" xmlns="http://www.w3.org/2000/svg">
<circle cx="9" cy="9" r="8.5" stroke="#03C00A"/>
<path d="M8.00086 4.54272H5.06514C5.06514 4.54272 4.9375 4.54272 4.9375 4.67239V5.96905C4.9375 5.96905 4.9375 6.09872 5.06514 6.09872H7.61794C8.25614 6.09872 8.7667 6.61738 8.7667 7.26571V12.582C8.7667 12.582 8.7667 12.7117 8.89434 12.7117H10.1707C10.1707 12.7117 10.2984 12.7117 10.2984 12.582V6.74705C10.2984 5.45039 9.27726 4.54272 8.00086 4.54272Z" fill="#03C00A"/>
<path d="M13.8724 9.5998L12.9789 8.69214H12.7236L9.53265 12.0635L6.08637 8.69214H5.83109L5.06525 9.5998V9.85913L9.40501 14.2678H9.66029L14 9.85913C14 9.72947 14 9.72947 13.8724 9.5998C14 9.5998 14 9.5998 13.8724 9.5998Z" fill="#03C00A"/>
</svg>
