<svg width="18" height="18" viewBox="0 0 18 18" fill="none" xmlns="http://www.w3.org/2000/svg">
<circle cx="9" cy="9" r="8.5" stroke="#03C00A"/>
<path d="M8.16899 13.5433H5.12676C5.12676 13.5433 5 13.5433 5 13.4145V12.1268C5 12.1268 5 11.998 5.12676 11.998H7.66195C8.29575 11.998 8.80279 11.4829 8.80279 10.8391V5.55944C8.80279 5.55944 8.80279 5.43066 8.92955 5.43066H10.1971C10.1971 5.43066 10.3239 5.43066 10.3239 5.55944V11.3542C10.3239 12.5131 9.30983 13.5433 8.16899 13.5433Z" fill="#03C00A"/>
<path d="M14.0001 8.52104L13.1128 9.42244H12.8593L9.56351 6.07437L6.26776 9.42244H6.01424L5.12692 8.52104V8.26349L9.43675 3.88525H9.69027L14.0001 8.26349V8.52104Z" fill="#03C00A"/>
</svg>
