<svg width="18" height="18" viewBox="0 0 18 18" fill="none" xmlns="http://www.w3.org/2000/svg">
<circle cx="9" cy="9" r="8.5" stroke="#03C00A"/>
<path d="M4.09888 12.0688L8.85412 7.23796L9.91088 8.31145L5.15563 13.1423L4.09888 12.0688Z" fill="#03C00A"/>
<path d="M7.14672 13.332L5.15411 11.8138L6.89764 9.91611L8.51664 11.9403L7.14672 13.332ZM12.2528 4.85552C11.2565 3.84341 9.51294 3.84341 8.3921 4.85552C7.3958 5.99416 7.3958 7.76536 8.3921 8.77748C9.3884 9.78959 11.1319 9.78959 12.2528 8.77748C13.2491 7.76536 13.2491 5.99416 12.2528 4.85552ZM9.51294 7.63885C9.13933 7.2593 9.13933 6.50021 9.51294 6.12067C9.88655 5.74113 10.6338 5.74113 11.0074 6.12067C11.381 6.50021 11.381 7.2593 11.0074 7.63885C10.6338 8.01839 10.0111 8.01839 9.51294 7.63885Z" fill="#03C00A"/>
</svg>
