<svg width="18" height="18" viewBox="0 0 18 18" fill="none" xmlns="http://www.w3.org/2000/svg">
<path fill-rule="evenodd" clip-rule="evenodd" d="M18 9C18 13.9706 13.9706 18 9 18C4.02944 18 0 13.9706 0 9C0 4.02944 4.02944 0 9 0C13.9706 0 18 4.02944 18 9ZM9.0054 9.23126C10.0054 9.75574 11.337 9.60448 12.2528 8.77748C13.2491 7.76536 13.2491 5.99416 12.2528 4.85552C11.2565 3.84341 9.51296 3.84341 8.39211 4.85552C7.57688 5.78722 7.42872 7.14246 7.94763 8.15879L4.09888 12.0688L5.15563 13.1423L5.90222 12.3838L7.14674 13.332L8.51665 11.9403L7.54033 10.7196L9.0054 9.23126ZM9.51295 6.12067C9.13934 6.50021 9.13934 7.2593 9.51295 7.63885C10.0111 8.01839 10.6338 8.01839 11.0074 7.63885C11.381 7.2593 11.381 6.50021 11.0074 6.12067C10.6338 5.74113 9.88657 5.74113 9.51295 6.12067Z" fill="#03C00A"/>
</svg>
