<svg width="18" height="18" viewBox="0 0 18 18" fill="none" xmlns="http://www.w3.org/2000/svg">
<circle cx="9" cy="9" r="8.5" stroke="#03C00A"/>
<path d="M10.988 11C10.1446 11 9.42169 10.625 8.69879 9.75C8.5 9.5 8.05624 8.625 8 8.5C7.94376 8.375 7.49398 7.875 7.13253 7.875C6.53012 7.875 6.04819 8.375 5.92771 9.125C5.92771 9.375 5.80723 10 5.80723 10.375H4C4 10.125 4 9.25 4.12048 8.75C4.48193 7.25 5.68675 6 7.01205 6C7.9759 6 8.81928 6.5 9.42169 7.375C9.42169 7.375 9.54217 7.5 9.66265 7.75C9.78313 8.125 10.0241 8.5 10.1446 8.625C10.506 9.125 10.747 9.25 10.988 9.25C11.5904 9.25 12.0723 8.75 12.1928 8C12.1928 7.75 12.3133 7.375 12.1928 6.875L13.0361 6.75H13.8795H13.1566H14C14 7.375 14 7.875 13.8795 8.375C13.5181 9.875 12.3133 11 10.988 11Z" fill="#03C00A"/>
</svg>
