<svg width="18" height="18" viewBox="0 0 18 18" fill="none" xmlns="http://www.w3.org/2000/svg">
<path fill-rule="evenodd" clip-rule="evenodd" d="M18 9C18 13.9706 13.9706 18 9 18C4.02944 18 0 13.9706 0 9C0 4.02944 4.02944 0 9 0C13.9706 0 18 4.02944 18 9ZM8.86213 8.59399C10.0048 8.59399 10.9311 7.65298 10.9311 6.49219C10.9311 5.33139 10.0048 4.39038 8.86213 4.39038C7.71947 4.39038 6.79316 5.33139 6.79316 6.49219C6.79316 7.65298 7.71947 8.59399 8.86213 8.59399ZM5 10.2755V12.6576H13V10.2755C13 9.85516 12.5862 9.29468 12.0345 9.29468H9.96552L9 11.2564L7.89655 9.29468H5.96552C5.41379 9.29468 5 9.71504 5 10.2755Z" fill="#03C00A"/>
</svg>
